<svg xmlns="http://www.w3.org/2000/svg" width="88.274" height="56.301" viewBox="0 0 88.274 56.301">
  <g id="g2-ratings" transform="translate(0)">
    <path id="Path_793" data-name="Path 793" d="M20.63,103.3l1.728,3.519,3.9.512-2.815,2.751.64,3.839-3.455-1.792-3.455,1.792.64-3.839L15,107.332l3.9-.512Z" transform="translate(-5.401 -57.619)" fill="#1d3dbf"/>
    <path id="Path_794" data-name="Path 794" d="M43.366,103.3l1.728,3.519,3.9.512-2.815,2.751.7,3.839-3.519-1.792-3.455,1.792.7-3.839L37.8,107.332l3.839-.512Z" transform="translate(-13.614 -57.619)" fill="#1d3dbf"/>
    <path id="Path_795" data-name="Path 795" d="M66.13,103.3l1.728,3.519,3.839.512-2.751,2.751.64,3.839-3.455-1.792-3.455,1.792.64-3.839L60.5,107.332l3.9-.512Z" transform="translate(-21.793 -57.619)" fill="#1d3dbf"/>
    <path id="Path_796" data-name="Path 796" d="M88.866,103.3l1.728,3.519,3.9.512-2.815,2.751.64,3.839-3.455-1.792-3.455,1.792.64-3.839L83.3,107.332l3.839-.512Z" transform="translate(-30.006 -57.619)" fill="#1d3dbf"/>
    <path id="Path_797" data-name="Path 797" d="M117.16,107.294l-3.9-.576-1.728-3.519h0l-.7,1.471-1.023,2.048-3.9.576h0l1.983,1.919.832.768-.128.64-.576,3.2h0l3.455-1.792,3.455,1.792-.64-3.839Zm-5.31,4.286-.256-.128v-7.037l1.28,2.559.128.256.256.064,2.815.384-2.048,1.983-.192.192.064.256.448,2.815Z" transform="translate(-38.147 -57.583)" fill="#1d3dbf"/>
    <g id="Group_1111" data-name="Group 1111" transform="translate(0 0)">
      <g id="Group_1110" data-name="Group 1110" transform="translate(14.578 0)">
        <path id="Path_1370" data-name="Path 1370" d="M20.721,5.564a2.33,2.33,0,0,0,.634-1.448,1.434,1.434,0,0,0-1.54-1.358,1.647,1.647,0,0,0-1.63,1.358L17.1,3.757A2.747,2.747,0,0,1,19.907,1.4a2.67,2.67,0,0,1,2.807,2.626,3.241,3.241,0,0,1-1,2.264C20.541,7.646,20.541,7.646,19.273,9.1h3.35v1.176H17.1V9.728Z" transform="translate(-17.099 -1.396)" fill="#9aa5b1"/>
      </g>
      <path id="Path_1371" data-name="Path 1371" d="M15.666,16.457V12.021h9.687a13.506,13.506,0,0,1,.179,1.9A12.268,12.268,0,1,1,13.222,1.7V6.045a7.877,7.877,0,1,0,0,15.753,8.042,8.042,0,0,0,7.515-5.342" transform="translate(-0.997 -1.425)" fill="#9aa5b1"/>
    </g>
    <g id="Group_1112" data-name="Group 1112" transform="translate(33.487 5.057)">
      <path id="Path_1372" data-name="Path 1372" d="M38,13.878c0-3.259.179-4.527.724-5.342A4.343,4.343,0,0,1,42.435,7a4.535,4.535,0,0,1,3.35,1.177,3.405,3.405,0,0,1,.724,2.535v.815H43.793c0-1.358-.09-1.63-.269-1.9a1.246,1.246,0,0,0-1.177-.543,1.3,1.3,0,0,0-1.177.634c-.269.543-.358,1.54-.358,4.255a16.621,16.621,0,0,0,.269,3.983,1.213,1.213,0,0,0,1.177.724c1.086,0,1.358-.543,1.448-2.535h2.716a5.969,5.969,0,0,1-.453,3.078c-.543,1-1.811,1.54-3.712,1.54-2.173,0-3.531-.815-3.983-2.445A23.078,23.078,0,0,1,38,13.878Z" transform="translate(-37.985 -6.981)" fill="#9aa5b1"/>
      <path id="Path_1373" data-name="Path 1373" d="M49.09,7.2h4.255c1.992,0,2.445.09,3.078.634a3.188,3.188,0,0,1,.905,2.626,3.756,3.756,0,0,1-.634,2.445,2.6,2.6,0,0,1-1.721.905c1.811.179,2.354,1.086,2.445,3.259a19.307,19.307,0,0,0,.09,1.992,5.342,5.342,0,0,0,.179,1.267H54.794a16.937,16.937,0,0,1-.09-2.535c0-1.54-.09-2.354-.453-2.716-.179-.269-.453-.269-1.177-.269H51.716v5.521H49Zm3.8,5.794c1.267,0,1.721-.543,1.721-1.9a2.077,2.077,0,0,0-.543-1.63,1.573,1.573,0,0,0-1.086-.269H51.807v3.712l1.086.09Z" transform="translate(-39.028 -7.002)" fill="#9aa5b1"/>
      <path id="Path_1374" data-name="Path 1374" d="M60.2,13.79c0-3.078.09-4.164.634-5.07A4.171,4.171,0,0,1,64.637,7c2.083,0,3.44.724,3.983,2.173a15.984,15.984,0,0,1,.358,4.618c0,2.807-.09,4.074-.543,4.8-.634,1.267-1.992,1.9-3.893,1.9s-3.169-.543-3.8-1.721C60.29,17.955,60.2,16.868,60.2,13.79Zm4.437,4.8a1.318,1.318,0,0,0,1.448-1.177,34.532,34.532,0,0,0,.179-4.074A13.468,13.468,0,0,0,66,9.717a1.4,1.4,0,0,0-1.358-.724,1.434,1.434,0,0,0-1.448.905,30.346,30.346,0,0,0-.179,3.983,24.323,24.323,0,0,0,.179,3.44,1.283,1.283,0,0,0,1.447,1.267Z" transform="translate(-40.088 -6.983)" fill="#9aa5b1"/>
      <path id="Path_1375" data-name="Path 1375" d="M71,7.2h2.716l.905,4.8c.269,1.721.358,3.35.543,6.337.543-4.074.724-5.161,1-6.337l1.087-4.8h3.078l1,4.8a42.177,42.177,0,0,1,.724,6.337A55.262,55.262,0,0,1,82.859,12l.815-4.8h2.445L83.494,20.419H80.506l-1.358-6.156c-.179-1.086-.453-3.531-.543-4.889-.358,2.988-.453,3.35-.724,4.889l-1.267,6.156H73.535Z" transform="translate(-41.11 -7.002)" fill="#9aa5b1"/>
      <path id="Path_1376" data-name="Path 1376" d="M88.9,7.2h3.712c2.173,0,2.807.09,3.44.634.815.634,1.267,1.721,1.449,3.8.09.815.09,1.9.09,2.807a10.952,10.952,0,0,1-.543,4.345,3.631,3.631,0,0,1-3.44,1.721H88.99Zm3.893,11.136c.905,0,1.448-.179,1.63-.724a11.357,11.357,0,0,0,.269-3.44,17.6,17.6,0,0,0-.269-4.074c-.179-.543-.724-.815-1.54-.815H91.707v9.051Z" transform="translate(-42.804 -7.002)" fill="#9aa5b1"/>
    </g>
    <rect id="Rectangle_906" data-name="Rectangle 906" width="0.905" height="24.354" transform="translate(28.702 0.094)" fill="#9aa5b1"/>
  </g>
</svg>
