<svg id="get-app-ratings" xmlns="http://www.w3.org/2000/svg" width="87.26" height="56.625" viewBox="0 0 87.26 56.625">
  <path id="Path_808" data-name="Path 808" d="M659.83,104.615l1.28,2.559.128.256.256.064,2.815.384-2.048,1.983-.192.192.064.256.448,2.815-2.495-1.344-.256-.128-.256.128-2.495,1.344.448-2.815.064-.256-.192-.192-2.048-1.983,2.815-.384.256-.064.128-.256,1.28-2.559m0-1.215-1.728,3.519-3.9.576,2.815,2.751-.64,3.839,3.454-1.792,3.454,1.792-.64-3.839,2.815-2.751-3.9-.576-1.728-3.519Z" transform="translate(-587.01 -57.461)" fill="#1d3dbf"/>
  <path id="Path_809" data-name="Path 809" d="M568.629,103.3l1.728,3.519,3.839.512-2.815,2.751.7,3.839-3.454-1.792-3.519,1.792.7-3.839L563,107.332l3.839-.512Z" transform="translate(-554.156 -57.425)" fill="#1d3dbf"/>
  <path id="Path_810" data-name="Path 810" d="M591.33,103.3l1.728,3.519,3.9.512-2.815,2.751.64,3.839-3.455-1.792-3.454,1.792.64-3.839-2.816-2.749,3.9-.512Z" transform="translate(-562.334 -57.425)" fill="#1d3dbf"/>
  <path id="Path_811" data-name="Path 811" d="M614.066,103.3l1.792,3.519,3.838.512-2.815,2.751.7,3.839-3.519-1.792-3.454,1.792.7-3.839-2.815-2.749,3.839-.512Z" transform="translate(-570.548 -57.425)" fill="#1d3dbf"/>
  <path id="Path_812" data-name="Path 812" d="M636.83,103.3l1.728,3.519,3.9.512-2.815,2.751.64,3.839-3.454-1.792-3.454,1.792.64-3.839-2.816-2.749,3.9-.512Z" transform="translate(-578.725 -57.425)" fill="#1d3dbf"/>
  <g id="Group_1115" data-name="Group 1115" transform="translate(0 0)">
    <path id="Path_1377" data-name="Path 1377" d="M13.122,8.1c.78,0,1.563-.045,2.339.009a2.123,2.123,0,0,1,2.187,2.3,9.033,9.033,0,0,1-1.953,6.47,8.482,8.482,0,0,1-8,2.877C3.169,19.2.5,15.636.089,11.4A12.608,12.608,0,0,1,.546,6.123,8.513,8.513,0,0,1,8.287.052a11.08,11.08,0,0,1,4.8.543,5.985,5.985,0,0,1,2.572,1.651,2.4,2.4,0,0,1,.654,1.887,1.776,1.776,0,0,1-2.539,1.486c-.654-.289-1.259-.687-1.906-1A5.449,5.449,0,0,0,8.6,4.039a4.32,4.32,0,0,0-3.62,3,8.086,8.086,0,0,0,.09,5.859,4.374,4.374,0,0,0,4.639,2.9,3.572,3.572,0,0,0,3.375-3.083c.09-.615.017-.712-.6-.757a23.036,23.036,0,0,1-2.325-.179,1.678,1.678,0,0,1-1.5-2,1.493,1.493,0,0,1,1.031-1.42A4.628,4.628,0,0,1,10.969,8.1c.717-.041,1.434-.012,2.151-.012A.015.015,0,0,1,13.122,8.1Z" transform="translate(0.01 0.011)" fill="#9aa5b1"/>
    <path id="Path_1378" data-name="Path 1378" d="M298.551,36.768c0-2.183-.009-4.366.005-6.549a12.846,12.846,0,0,1,.141-1.673,1.772,1.772,0,0,1,1.229-1.613,1.991,1.991,0,0,1,2.143.532c.555.558.558.555,1.214.081a5.52,5.52,0,0,1,6.525.551,7.686,7.686,0,0,1,2.439,7.208,7.382,7.382,0,0,1-2.419,4.628,5.534,5.534,0,0,1-6.418.815c-.7-.38-.768-.349-.783.438-.019,1,.007,2-.021,2.994a5.031,5.031,0,0,1-.179,1.288,1.735,1.735,0,0,1-1.971,1.344,1.681,1.681,0,0,1-1.7-1.453,9.049,9.049,0,0,1-.2-1.853C298.536,41.26,298.551,39.015,298.551,36.768Zm4.033-2.664A3.787,3.787,0,0,0,303.5,36.8a2.514,2.514,0,0,0,3.972-.227,4.6,4.6,0,0,0,.012-4.948,2.5,2.5,0,0,0-3.961-.269,3.825,3.825,0,0,0-.939,2.749Z" transform="translate(-242.598 -21.7)" fill="#9aa5b1"/>
    <path id="Path_1379" data-name="Path 1379" d="M380.264,40.389c0,.481.009.806,0,1.137-.041,1.182-.028,2.37-.151,3.545a1.758,1.758,0,0,1-1.87,1.808,1.882,1.882,0,0,1-1.988-1.824,8.168,8.168,0,0,1-.062-1.212q-.005-6.97,0-13.943a5.863,5.863,0,0,1,.16-1.572,1.893,1.893,0,0,1,3.253-.854c.627.582.627.582,1.3.12a5.556,5.556,0,0,1,6,.179,6.374,6.374,0,0,1,2.555,3.476,8.4,8.4,0,0,1-.8,7.287,5.679,5.679,0,0,1-5.573,2.906,9.325,9.325,0,0,1-2.037-.6A5.709,5.709,0,0,1,380.264,40.389Zm5.507-6.273a3.764,3.764,0,0,0-.708-2.41,2.509,2.509,0,0,0-4.3.146,4.314,4.314,0,0,0,.034,4.628,2.5,2.5,0,0,0,4.3.09,3.965,3.965,0,0,0,.678-2.457Z" transform="translate(-305.688 -21.764)" fill="#9aa5b1"/>
    <path id="Path_1380" data-name="Path 1380" d="M224.923,19.834a1.929,1.929,0,0,1-1.238,1.855,1.861,1.861,0,0,1-2.295-.486,8.9,8.9,0,0,1-.866-1.737,5.805,5.805,0,0,1-.292-.888.681.681,0,0,0-.74-.568q-2.948.008-5.9,0a.717.717,0,0,0-.74.579c-.208.622-.4,1.255-.667,1.848a1.929,1.929,0,0,1-1.448,1.326,1.874,1.874,0,0,1-2.342-2.051,4.5,4.5,0,0,1,.292-1.36q2.386-6.549,4.81-13.083a6.84,6.84,0,0,1,.524-1.1,3.057,3.057,0,0,1,5.326-.1,5.772,5.772,0,0,1,.562,1.178q2.33,6.571,4.63,13.15C224.707,18.864,224.8,19.354,224.923,19.834ZM216.754,7.421h-.277c-.686,2.061-1.376,4.127-2.05,6.2-.156.476.2.512.532.515,1.031.007,2.061.015,3.092,0,.727-.009.764-.055.558-.755-.407-1.377-.836-2.747-1.259-4.122C217.155,8.648,216.951,8.036,216.754,7.421Z" transform="translate(-169.339 -2.067)" fill="#9aa5b1"/>
    <path id="Path_1381" data-name="Path 1381" d="M105.742,35.273c-1.216,0-2.432-.013-3.648.005-.7.012-.828.22-.543.869a2.936,2.936,0,0,0,2.764,1.748,5.791,5.791,0,0,0,2.8-.646,10.492,10.492,0,0,1,1.374-.584,1.523,1.523,0,0,1,1.712.409,1.554,1.554,0,0,1,.082,1.915,4.391,4.391,0,0,1-1.3,1.3,8.147,8.147,0,0,1-8.2.339,6.474,6.474,0,0,1-3.412-4.677,7.839,7.839,0,0,1,1.16-6.255,6.829,6.829,0,0,1,7.877-2.54,6.681,6.681,0,0,1,4.454,6.578c-.034,1.091-.378,1.48-1.456,1.512-1.216.036-2.432.007-3.648.007a.041.041,0,0,0,0,.016Zm-1.648-2.609h0c.717,0,1.428.017,2.14-.005.6-.019.689-.172.506-.755a2.868,2.868,0,0,0-2.657-1.844,2.947,2.947,0,0,0-2.645,2.011c-.108.405,0,.594.424.592Z" transform="translate(-78.942 -21.753)" fill="#9aa5b1"/>
    <path id="Path_1382" data-name="Path 1382" d="M170.081,17.884c0-1.184-.007-2.37,0-3.555.005-.538-.12-.9-.766-.916a2.235,2.235,0,0,1-.883-.275,1.514,1.514,0,0,1-.886-1.434,1.51,1.51,0,0,1,.873-1.434,3.764,3.764,0,0,1,.789-.281c.857-.213.855-.208.877-1.108a18.267,18.267,0,0,1,.084-2.054,1.792,1.792,0,0,1,2-1.774,1.489,1.489,0,0,1,1.662,1.212,12.041,12.041,0,0,1,.236,2.4c.043,1.139.019,1.141,1.152,1.281,1.228.151,1.853.783,1.851,1.816a1.394,1.394,0,0,1-.993,1.424,5.735,5.735,0,0,1-1.185.247c-.792.107-.807.1-.811.922-.009,2.212.007,4.428-.013,6.64a6.272,6.272,0,0,1-.179,1.568,1.724,1.724,0,0,1-1.8,1.336,1.678,1.678,0,0,1-1.748-1.28,7.388,7.388,0,0,1-.236-1.748c-.038-1-.009-2-.009-2.992Z" transform="translate(-136.146 -4.092)" fill="#9aa5b1"/>
  </g>
  <g id="Group_1116" data-name="Group 1116" transform="translate(83.244 0.962)">
    <path id="Path_1383" data-name="Path 1383" d="M448.234,7.014a2.008,2.008,0,1,1-2-1.954,1.964,1.964,0,0,1,2,1.954Zm-3.515,0a1.513,1.513,0,0,0,1.523,1.561,1.5,1.5,0,0,0,1.489-1.549,1.509,1.509,0,1,0-3.015-.012Zm1.2,1.025h-.453V6.082a3.964,3.964,0,0,1,.752-.06,1.222,1.222,0,0,1,.678.142.545.545,0,0,1,.191.429.5.5,0,0,1-.405.453v.024a.578.578,0,0,1,.358.476,1.534,1.534,0,0,0,.142.489H446.7a1.678,1.678,0,0,1-.156-.476c-.036-.213-.156-.309-.405-.309h-.213Zm.013-1.108h.213c.251,0,.453-.084.453-.287,0-.179-.131-.3-.418-.3a1.022,1.022,0,0,0-.251.024v.56Z" transform="translate(-444.219 -5.06)" fill="#9aa5b1"/>
  </g>
</svg>
