<svg xmlns="http://www.w3.org/2000/svg" width="211" height="29.337" viewBox="0 0 211 29.337">
  <g id="Webgility_Logo_Registered_Webgility_Vertical_-_Color" data-name="Webgility Logo Registered_Webgility Vertical - Color" transform="translate(-29.61 -90.52)">
    <path id="Path_1371" data-name="Path 1371" d="M43.165,90.52l3.384,5.859,3.388,5.871-3.386,5.869h0l-6.783-11.74L36.387,90.52H29.61l3.381,5.859L43.16,113.99l3.388,5.867,3.386-5.867h0l3.388-5.867h0l3.388,5.867,3.388-5.867L66.88,96.379l3.383-5.859Zm13.552,11.736h0l-3.388-5.867h6.785Z" fill="#f35627"/>
    <path id="Path_1372" data-name="Path 1372" d="M312.18,134.708l-6.58-19.533h3.425l3.748,11.246,5.313-11.571,5.233,11.543,3.8-11.219h3.425l-6.635,19.553-5.832-12.7Z" transform="translate(-222.338 -19.6)" fill="#00071d"/>
    <path id="Path_1373" data-name="Path 1373" d="M453.88,135.318v-18.8h11.975v3.048h-8.6v4.471h8.064v3.052h-8.064v5.179h8.793v3.048Z" transform="translate(-341.792 -20.946)" fill="#00071d"/>
    <path id="Path_1374" data-name="Path 1374" d="M539.19,135.318v-18.8h6.8a5.289,5.289,0,0,1,3.721,1.374,4.36,4.36,0,0,1,1.538,3.425,3.8,3.8,0,0,1-2.4,3.777,4.449,4.449,0,0,1,3.775,4.666,5.288,5.288,0,0,1-1.645,3.991,5.623,5.623,0,0,1-4.082,1.565Zm3.373-11.221h2.967a2.265,2.265,0,0,0,2.426-2.319,2.235,2.235,0,0,0-2.4-2.21h-2.994Zm0,8.165h3.783a2.754,2.754,0,0,0,2.939-2.7,2.723,2.723,0,0,0-2.967-2.644h-3.756Z" transform="translate(-410.518 -20.946)" fill="#00071d"/>
    <path id="Path_1375" data-name="Path 1375" d="M641.88,116.532v3.4a8.5,8.5,0,0,0-5.69-2.024,6.675,6.675,0,1,0,0,13.349,6.36,6.36,0,0,0,4.5-1.7V126.24h-5.231v-3.048h8.414v7.582a9.829,9.829,0,0,1-7.685,3.532,9.969,9.969,0,0,1-7.094-2.751,9.176,9.176,0,0,1-2.887-6.958,9.317,9.317,0,0,1,2.887-6.958,10.474,10.474,0,0,1,12.784-1.108Z" transform="translate(-480.621 -19.608)" fill="#00071d"/>
    <path id="Path_1376" data-name="Path 1376" d="M741.33,135.318v-18.8H744.7v18.8Z" transform="translate(-573.362 -20.946)" fill="#00071d"/>
    <path id="Path_1377" data-name="Path 1377" d="M782.92,135.318v-18.8h3.371v15.746h7.471v3.048Z" transform="translate(-606.867 -20.946)" fill="#00071d"/>
    <path id="Path_1378" data-name="Path 1378" d="M863.69,135.318v-18.8h3.365v18.8Z" transform="translate(-671.936 -20.946)" fill="#00071d"/>
    <path id="Path_1379" data-name="Path 1379" d="M909.467,135.318V119.572h-5.1V116.52h13.565v3.048h-5.1v15.746Z" transform="translate(-704.708 -20.946)" fill="#00071d"/>
    <path id="Path_1380" data-name="Path 1380" d="M995,135.318v-7.282L988.23,116.52h3.649l4.827,8.279,4.8-8.279h3.614l-6.771,11.516v7.282Z" transform="translate(-772.265 -20.946)" fill="#00071d"/>
    <path id="Path_1381" data-name="Path 1381" d="M1090.837,119.349a2.916,2.916,0,1,1-2.916-2.832,2.846,2.846,0,0,1,2.916,2.832Zm-5.1,0a2.2,2.2,0,0,0,2.21,2.265,2.171,2.171,0,0,0,2.16-2.247,2.191,2.191,0,1,0-4.38-.017Zm1.75,1.487h-.655V118a5.677,5.677,0,0,1,1.089-.086,1.766,1.766,0,0,1,.984.206.789.789,0,0,1,.276.622.727.727,0,0,1-.583.657v.035a.834.834,0,0,1,.517.69,2.122,2.122,0,0,0,.21.71h-.71a2.506,2.506,0,0,1-.226-.692c-.05-.311-.224-.449-.583-.449h-.311Zm.018-1.608h.311c.364,0,.657-.121.657-.414,0-.259-.194-.432-.6-.432a1.566,1.566,0,0,0-.364.035Z" transform="translate(-850.228 -20.942)" fill="#00071d"/>
  </g>
</svg>
