<svg xmlns="http://www.w3.org/2000/svg" width="192.351" height="26.742" viewBox="0 0 192.351 26.742"><path d="M12.352,0l3.084,5.334,3.084,5.352-3.084,5.352h0L9.268,5.334,6.185,0H0L3.084,5.334,12.352,21.39l3.084,5.352L18.52,21.39h0l3.1-5.334h0l3.08,5.352,3.084-5.352,6.185-10.7L37.056,0ZM24.7,10.7h0L21.621,5.352h6.185Z" fill="#f35627"/><path d="M281.99,42.476,276,24.684h3.119l3.42,10.261L287.377,24.4l4.767,10.527,3.473-10.243h3.119l-6.043,17.828L287.376,30.94Z" transform="translate(-227.088 -20.076)" fill="#fff"/><path d="M424.3,43.137V26h10.917v2.782h-7.851v4.076h7.355V35.64h-7.355v4.714h8.01v2.782Z" transform="translate(-349.106 -21.392)" fill="#fff"/><path d="M509.6,43.137V26h6.2a4.821,4.821,0,0,1,3.385,1.258,3.917,3.917,0,0,1,1.4,3.119,3.464,3.464,0,0,1-2.18,3.438,4.052,4.052,0,0,1,3.438,4.253,4.8,4.8,0,0,1-1.506,3.633,5.149,5.149,0,0,1-3.722,1.435Zm3.066-10.225h2.711a2.077,2.077,0,0,0,2.215-2.109,2.039,2.039,0,0,0-2.18-2.02h-2.729Zm0,7.443h3.456a2.513,2.513,0,0,0,2.676-2.463,2.484,2.484,0,0,0-2.711-2.41h-3.42Z" transform="translate(-419.29 -21.392)" fill="#fff"/><path d="M610.966,25.9V29a7.79,7.79,0,0,0-5.193-1.843,5.841,5.841,0,0,0-4.324,1.754,5.9,5.9,0,0,0-1.719,4.36,5.931,5.931,0,0,0,1.719,4.36,6.276,6.276,0,0,0,8.436.177V34.765h-4.767V31.983h7.674v6.911a8.984,8.984,0,0,1-7,3.225,9.107,9.107,0,0,1-6.468-2.5,8.345,8.345,0,0,1-2.623-6.344,8.528,8.528,0,0,1,2.623-6.344A9.573,9.573,0,0,1,610.966,25.9Z" transform="translate(-490.954 -20.074)" fill="#fff"/><path d="M711.7,43.137V26h3.066V43.137Z" transform="translate(-585.574 -21.392)" fill="#fff"/><path d="M753.3,43.137V26h3.066V40.355h6.8v2.782Z" transform="translate(-619.802 -21.392)" fill="#fff"/><path d="M834.1,43.137V26h3.066V43.137Z" transform="translate(-686.282 -21.392)" fill="#fff"/><path d="M879.443,43.137V28.782H874.8V26h12.37v2.782h-4.643V43.137Z" transform="translate(-719.77 -21.392)" fill="#fff"/><path d="M964.767,43.137V36.491L958.6,26h3.332l4.4,7.549L970.7,26H974l-6.167,10.491v6.646Z" transform="translate(-788.719 -21.392)" fill="#fff"/><path d="M1060.71,28.584A2.659,2.659,0,1,1,1057.98,26h.071a2.6,2.6,0,0,1,2.658,2.534Zm-4.643,0A2,2,0,0,0,1058,30.639h.071a2.065,2.065,0,1,0-2.02-2.127c0,.035,0,.053.018.071Zm1.595,1.347h-.6V27.343a4.6,4.6,0,0,1,.992-.071,1.507,1.507,0,0,1,.9.2.706.706,0,0,1,.248.567.69.69,0,0,1-.532.6v.018a.784.784,0,0,1,.479.638,1.524,1.524,0,0,0,.195.638h-.656a1.936,1.936,0,0,1-.213-.638.459.459,0,0,0-.532-.408h-.284Zm.018-1.471h.284c.337,0,.6-.106.6-.372,0-.23-.177-.39-.549-.39a1.091,1.091,0,0,0-.337.035Z" transform="translate(-868.36 -21.389)" fill="#fff"/></svg>