<svg id="qb-ratings" xmlns="http://www.w3.org/2000/svg" width="128.706" height="56.783" viewBox="0 0 128.706 56.783">
  <path id="Path_798" data-name="Path 798" d="M293.966,103.3l1.728,3.519,3.9.512-2.815,2.751.7,3.839-3.519-1.792-3.455,1.792.7-3.839-2.815-2.749,3.839-.512Z" transform="translate(-258.587 -57.138)" fill="#1d3dbf"/>
  <path id="Path_799" data-name="Path 799" d="M316.729,103.3l1.728,3.519,3.9.512-2.815,2.751.64,3.839-3.455-1.792-3.454,1.792.64-3.839-2.816-2.749,3.9-.512Z" transform="translate(-266.765 -57.138)" fill="#1d3dbf"/>
  <path id="Path_800" data-name="Path 800" d="M339.466,103.3l1.728,3.519,3.9.512-2.815,2.751.7,3.839-3.519-1.792-3.455,1.792.7-3.839-2.815-2.749,3.839-.512Z" transform="translate(-274.979 -57.138)" fill="#1d3dbf"/>
  <path id="Path_801" data-name="Path 801" d="M362.229,103.3l1.728,3.519,3.839.512-2.751,2.751.64,3.839-3.454-1.792-3.455,1.792.64-3.839-2.816-2.749,3.9-.512Z" transform="translate(-283.157 -57.138)" fill="#1d3dbf"/>
  <path id="Path_802" data-name="Path 802" d="M390.56,107.294l-3.9-.576-1.728-3.519h0l-.7,1.471-1.023,2.048-3.9.576h0l1.983,1.919.832.768-.128.64-.575,3.2h0l3.454-1.792,3.455,1.792-.64-3.839Zm-5.377,4.286-.256-.128v-7.037l1.28,2.559.128.256.256.064,2.815.384-2.048,1.983-.192.192.064.256.448,2.815Z" transform="translate(-291.334 -57.101)" fill="#1d3dbf"/>
  <g id="Wordmark" transform="translate(24.901 5.486)">
    <path id="_xAE__1_" d="M659.18,329.759c0-.262-.224-.358-.448-.358H658.3v1.219h.22v-.509h.157l.286.509h.269l-.329-.538a.324.324,0,0,0,.274-.323Zm-.661.179v-.348h.2c.115,0,.243.033.243.167s-.142.179-.269.179Zm.2-1a1.076,1.076,0,1,0,.768.313,1.075,1.075,0,0,0-.768-.313Zm0,1.995a.914.914,0,1,1,.914-.914.914.914,0,0,1-.914.914Z" transform="translate(-556.003 -316.424)" fill="#9aa5b1"/>
    <path id="quickbooks" d="M274.259,290.4a2.536,2.536,0,0,1-2.388-2.79,2.4,2.4,0,0,1,4.179-1.914l1.681-1.675a5.108,5.108,0,0,0-8.593,3.619,5.233,5.233,0,0,0,8.637,3.728l-1.635-1.751a2.6,2.6,0,0,1-1.88.783Zm-9.4,1.962h2.609V282.92h-2.609Zm-4.743-4.267a2.161,2.161,0,0,1-2.072,2.3c-1.039,0-1.6-.741-1.6-2.266V282.92h-2.609v5.862c0,1.951.973,3.853,3.576,3.853a3.758,3.758,0,0,0,2.778-1.679h.039v1.413h2.492v-9.445h-2.608Zm-10.98-3.98h-.057a4.032,4.032,0,0,0-2.988-1.465,4.715,4.715,0,0,0-4.708,4.951c0,2.912,1.891,5.026,4.584,5.026a4.229,4.229,0,0,0,3.037-1.4h.039v5.786h2.609V282.92H249.14ZM246.6,290.4a2.627,2.627,0,0,1-2.53-2.8,2.582,2.582,0,0,1,2.53-2.761,2.68,2.68,0,0,1,2.509,2.8A2.627,2.627,0,0,1,246.6,290.4Zm59.412-7.749a4.873,4.873,0,0,0-5.121,4.951,5.122,5.122,0,1,0,10.244,0,4.873,4.873,0,0,0-5.124-4.95Zm0,7.749a2.8,2.8,0,1,1,2.475-2.8,2.553,2.553,0,0,1-2.477,2.8Zm32.608-3.853c-1.344-.32-1.816-.493-1.816-1.037,0-.749.95-.914,1.38-.914a2.918,2.918,0,0,1,2.067.942l1.538-1.476a4.642,4.642,0,0,0-3.584-1.414c-1.887,0-3.869.949-3.869,3.07,0,1.821,1.427,2.371,2.824,2.705,1.472.343,2,.593,2,1.186,0,.875-.992,1.017-1.333,1.017a3.377,3.377,0,0,1-2.376-1.122l-1.583,1.6a5.287,5.287,0,0,0,3.864,1.537c2.549,0,4.063-1.215,4.063-3.222,0-1.914-1.856-2.559-3.173-2.875Zm-4.929-3.632h-3.364l-3.371,3.925H326.9v-9.127h-2.612v14.65H326.9v-4.66h.058l3.495,4.66h3.432l-4.06-5.162Zm-38.676-.269a4.086,4.086,0,0,0-2.9,1.3h-.049v-6.238h-2.608v14.65h2.494v-1.335h.039a3.524,3.524,0,0,0,2.968,1.6,4.756,4.756,0,0,0,4.733-5.026,4.69,4.69,0,0,0-4.68-4.946ZM294.5,290.4a2.626,2.626,0,0,1-2.509-2.76,2.681,2.681,0,0,1,2.509-2.8,2.579,2.579,0,0,1,2.527,2.761,2.625,2.625,0,0,1-2.531,2.8Zm-6.026-7.483H285.11l-3.368,3.92h-.058v-9.118h-2.608v14.65h2.608v-4.66h.058l3.495,4.66h3.432l-4.06-5.162Zm29-.269a4.873,4.873,0,0,0-5.121,4.951,5.122,5.122,0,1,0,10.244,0,4.873,4.873,0,0,0-5.124-4.941Zm0,7.749a2.8,2.8,0,1,1,2.475-2.8,2.553,2.553,0,0,1-2.476,2.808Z" transform="translate(-241.375 -277.709)" fill="#9aa5b1"/>
  </g>
  <g id="Icon_2_" transform="translate(0 0)">
    <circle id="Circle_2_" cx="10.987" cy="10.987" r="10.987" transform="translate(0 0)" fill="#9aa5b1"/>
    <path id="qb" d="M151.866,277.929a4.273,4.273,0,0,0,4.273,4.273h.61v-1.587h-.61a2.688,2.688,0,1,1,0-5.371h1.467v8.3a1.587,1.587,0,0,0,1.587,1.587V273.66h-3.054a4.273,4.273,0,0,0-4.273,4.269Zm11.6-4.269h-.61v1.587h.61a2.688,2.688,0,1,1,0,5.371H162v-8.3a1.587,1.587,0,0,0-1.587-1.587V282.2h3.054a4.273,4.273,0,1,0,0-8.545Z" transform="translate(-148.815 -266.942)" fill="#fff"/>
  </g>
  <path id="intuit_2_" d="M256.285,260.978a.726.726,0,1,0-.726-.726A.726.726,0,0,0,256.285,260.978Zm-4.332.489a1.636,1.636,0,0,0-1.491.911h-.02v-.771H249.3v4.806h1.2V263.77a1.176,1.176,0,0,1,1.121-1.3c.771,0,.9.712.9,1.281v2.663h1.2v-3a1.749,1.749,0,0,0-1.773-1.943Zm-5.085,4.946h1.2v-4.806h-1.2Zm21.847-5.435a.726.726,0,1,0-.513-.212.726.726,0,0,0,.513.212Zm-1.948.627v1.065h1.344v3.744h1.2V262.67h1.344V261.6Zm-2.043,4.809h1.2v-4.806h-1.2Zm-10.389-3.745h1.344v3.744h1.2v-3.744h1.344V261.6h-3.89Zm7.956,1.582a1.176,1.176,0,0,1-1.121,1.3c-.771,0-.9-.711-.9-1.281v-2.663h-1.2v3a1.749,1.749,0,0,0,1.772,1.942,1.635,1.635,0,0,0,1.491-.911h.02v.771h1.142v-4.806h-1.2Z" transform="translate(-220.623 -258.476)" fill="#9aa5b1"/>
</svg>
