<svg id="Layer_2" data-name="Layer 2" xmlns="http://www.w3.org/2000/svg" width="49.455" height="40.205" viewBox="0 0 49.455 40.205">
  <g id="Layer_1" data-name="Layer 1">
    <path id="Path_3069" data-name="Path 3069" d="M20.992,5.337C15.3,9.072,10.148,16.187,9.607,21.88c.177,0,1.422-.177,2.313-.177,4.981,0,8.537,3.735,8.537,9.072a9.377,9.377,0,0,1-9.428,9.43C5.155,40.2,0,35.4,0,26.683,0,15.831,6.227,5.87,14.409,0Zm28.463,0C43.763,9.072,38.78,16.187,38.07,21.88c.177,0,1.422-.177,2.312-.177,4.982,0,8.718,3.735,8.718,9.072a9.534,9.534,0,0,1-9.607,9.43c-5.87,0-11.029-4.8-11.029-13.521C28.463,15.831,34.689,5.87,42.872,0Z" transform="translate(0)" fill="#334ceb"/>
  </g>
</svg>
