<svg id="shopify-ratings" xmlns="http://www.w3.org/2000/svg" width="91.337" height="57.907" viewBox="0 0 91.337 57.907">
  <path id="Path_803" data-name="Path 803" d="M722.566,264.1l1.728,3.519,3.9.512-2.815,2.751.64,3.9-3.454-1.855-3.454,1.855.64-3.9L717,268.133l3.839-.512Z" transform="translate(-705.848 -216.877)" fill="#1d3dbf"/>
  <path id="Path_804" data-name="Path 804" d="M745.33,264.1l1.728,3.519,3.839.512-2.815,2.751.7,3.9-3.454-1.855-3.519,1.855.7-3.9-2.815-2.749,3.9-.512Z" transform="translate(-714.026 -216.877)" fill="#1d3dbf"/>
  <path id="Path_805" data-name="Path 805" d="M768.03,264.1l1.728,3.519,3.9.512-2.815,2.751.64,3.9-3.454-1.855-3.454,1.855.64-3.9-2.816-2.749,3.9-.512Z" transform="translate(-722.202 -216.877)" fill="#1d3dbf"/>
  <path id="Path_806" data-name="Path 806" d="M790.83,264.1l1.728,3.519,3.838.512-2.815,2.751.7,3.9-3.454-1.855-3.518,1.855.7-3.9-2.815-2.749,3.839-.512Z" transform="translate(-730.416 -216.877)" fill="#1d3dbf"/>
  <path id="Path_807" data-name="Path 807" d="M813.066,264.1l1.727,3.519,3.9.512-2.815,2.751.7,3.9-3.519-1.855-3.454,1.855.7-3.9-2.814-2.749,3.838-.512Z" transform="translate(-738.45 -216.877)" fill="#1d3dbf"/>
  <g id="Group_1125" data-name="Group 1125" transform="translate(25.947 5.067)">
    <path id="s_2_" d="M132.427,53.16c-.778-.43-1.186-.778-1.186-1.269,0-.634.553-1.023,1.434-1.023a5.018,5.018,0,0,1,1.923.43l.717-2.189a4.538,4.538,0,0,0-2.6-.512c-2.7,0-4.584,1.555-4.584,3.724a3.454,3.454,0,0,0,2.046,2.844c.941.532,1.269.921,1.269,1.473,0,.593-.47,1.064-1.35,1.064a6.013,6.013,0,0,1-2.537-.676l-.757,2.189a5.9,5.9,0,0,0,3.047.757c2.782,0,4.767-1.371,4.767-3.826C134.657,54.8,133.634,53.856,132.427,53.16Z" transform="translate(-126.802 -43.72)" fill="#9aa5b1"/>
    <path id="h_2_" d="M176.525,30.5a4.212,4.212,0,0,0-3.273,1.637l-.041-.021,1.183-6.221H171.3l-3,15.816h3.09l1.023-5.4c.41-2.046,1.453-3.294,2.435-3.294.7,0,.962.47.962,1.146a6.244,6.244,0,0,1-.143,1.371l-1.165,6.2h3.09l1.207-6.384a10.748,10.748,0,0,0,.225-2.026C179.043,31.545,178.121,30.5,176.525,30.5Z" transform="translate(-159.81 -25.667)" fill="#9aa5b1"/>
    <path id="o_1_" d="M230.9,48.4c-3.724,0-6.2,3.356-6.2,7.1a4.046,4.046,0,0,0,4.256,4.338c3.662,0,6.118-3.273,6.118-7.1A3.984,3.984,0,0,0,230.9,48.4Zm-1.514,9.044c-1.064,0-1.494-.9-1.494-2.026,0-1.781.92-4.665,2.6-4.665,1.1,0,1.453.941,1.453,1.862C231.942,54.538,231.022,57.444,229.384,57.444Z" transform="translate(-204.669 -43.563)" fill="#9aa5b1"/>
    <path id="p_1_" d="M280.555,48.4a4.237,4.237,0,0,0-3.273,1.842h-.041l.185-1.658h-2.742c-.143,1.126-.389,2.824-.634,4.113L271.9,64.033h3.09l.859-4.584h.062a3.572,3.572,0,0,0,1.821.41c3.642,0,6.016-3.724,6.016-7.489C283.747,50.262,282.826,48.4,280.555,48.4Zm-2.946,9.105a1.936,1.936,0,0,1-1.269-.448l.512-2.885c.368-1.923,1.371-3.213,2.435-3.213.941,0,1.228.88,1.228,1.7C280.514,54.641,279.328,57.505,277.609,57.505Z" transform="translate(-242.212 -43.563)" fill="#9aa5b1"/>
    <path id="dot_2_" d="M344.479,26.6a1.773,1.773,0,0,0-1.781,1.8,1.425,1.425,0,0,0,1.453,1.555h.041a1.755,1.755,0,0,0,1.821-1.8,1.455,1.455,0,0,0-1.534-1.555Z" transform="translate(-298.525 -26.223)" fill="#9aa5b1"/>
    <path id="i_2_" d="M330.2,60.567h3.11L335.418,49.6h-3.131Z" transform="translate(-288.584 -44.517)" fill="#9aa5b1"/>
    <path id="f_2_" d="M365.784,29.833h-2.151l.1-.512c.184-1.064.8-2.005,1.841-2.005a3.046,3.046,0,0,1,.985.164l.614-2.414A4.078,4.078,0,0,0,365.5,24.8a4.6,4.6,0,0,0-3.028,1.023,5.812,5.812,0,0,0-1.8,3.495l-.082.512h-1.434l-.448,2.33h1.434L358.5,40.821h3.09l1.637-8.656h2.128Z" transform="translate(-311.093 -24.791)" fill="#9aa5b1"/>
    <path id="y_2_" d="M397.571,49.6s-1.944,4.869-2.8,7.527h-.041c-.061-.859-.757-7.527-.757-7.527h-3.256l1.862,10.067a.691.691,0,0,1-.061.512,5.368,5.368,0,0,1-1.677,1.862,6.627,6.627,0,0,1-1.739.88l.859,2.619a7.242,7.242,0,0,0,3.028-1.678,20.633,20.633,0,0,0,4.051-6.138l3.785-8.123Z" transform="translate(-335.431 -44.517)" fill="#9aa5b1"/>
  </g>
  <g id="Group_1126" data-name="Group 1126" transform="translate(0 0)">
    <path id="Path_1419" data-name="Path 1419" d="M72,37.285l7.653-1.658s-2.763-18.681-2.782-18.8a.238.238,0,0,0-.225-.2c-.1,0-2.046-.143-2.046-.143s-1.35-1.35-1.514-1.494a.428.428,0,0,0-.123-.082Z" transform="translate(-57.268 -11.851)" fill="#9aa5b1"/>
    <path id="Path_1420" data-name="Path 1420" d="M15.366,3.008c-.021,0-.062.021-.082.021s-.307.082-.757.225c-.45-1.31-1.248-2.517-2.661-2.517h-.123A1.751,1.751,0,0,0,10.415,0C7.12,0,5.545,4.113,5.054,6.2c-1.269.389-2.189.676-2.291.717-.717.225-.737.246-.818.921C1.862,8.328,0,22.753,0,22.753l14.384,2.7Zm-3.745,1v.143c-.8.246-1.678.512-2.537.778a4.4,4.4,0,0,1,2.21-3.151,6.256,6.256,0,0,1,.327,2.23ZM10.312.88a.717.717,0,0,1,.43.143C9.7,1.514,8.553,2.763,8.083,5.259c-.7.225-1.371.43-2.005.614C6.631,3.97,7.959.88,10.312.88Zm.573,11.112A4.528,4.528,0,0,0,9,11.544c-1.535,0-1.6.962-1.6,1.207,0,1.309,3.437,1.821,3.437,4.911,0,2.435-1.535,3.99-3.622,3.99A5.01,5.01,0,0,1,3.459,20.1l.676-2.21a4.766,4.766,0,0,0,2.414,1.126.986.986,0,0,0,1.023-.986c0-1.719-2.824-1.8-2.824-4.624,0-2.374,1.7-4.686,5.156-4.686a4.161,4.161,0,0,1,1.985.389ZM12.2,1.637c.737.082,1.207.921,1.514,1.862-.368.123-.778.246-1.228.389V3.619A6.08,6.08,0,0,0,12.2,1.637Z" fill="#9aa5b1"/>
  </g>
</svg>
