<svg id="trust-radius-ratings" xmlns="http://www.w3.org/2000/svg" xmlns:xlink="http://www.w3.org/1999/xlink" width="132.425" height="55.689" viewBox="0 0 132.425 55.689">
  <defs>
    <clipPath id="clip-path">
      <path id="Path_1391" data-name="Path 1391" d="M950,196h35.413v23.609H950Z" transform="translate(-950 -196)" fill="#fff"/>
    </clipPath>
  </defs>
  <g id="Group_1119" data-name="Group 1119" clip-path="url(#clip-path)">
    <path id="Path_1384" data-name="Path 1384" d="M0,0A.806.806,0,0,1,.236.164l3.821,3.82a.806.806,0,0,1,.236.569v17.6a.269.269,0,0,1-.458.189l-3.6-3.6A.807.807,0,0,1,0,18.171Z" transform="translate(10.731 1.145)" fill="#9aa5b1"/>
    <path id="Path_1385" data-name="Path 1385" d="M4.061.16A.8.8,0,0,1,4.293,0V18.17a.806.806,0,0,1-.236.569l-3.6,3.6A.269.269,0,0,1,0,22.154V4.546a.806.806,0,0,1,.233-.557h0L4.057.164h0Z" transform="translate(17.169 1.145)" fill="#9aa5b1"/>
    <path id="Path_1386" data-name="Path 1386" d="M6.707,4.024l-.269-.269V0H2.794a.269.269,0,0,0-.188.077h0L0,2.683l8.349,8.349h0a.807.807,0,0,0,.565.232H13.3a.269.269,0,0,0,.19-.458Z" transform="translate(21.463 11.268)" fill="#9aa5b1"/>
    <path id="Path_1387" data-name="Path 1387" d="M4.553,0a.806.806,0,0,0-.565.232h0L.164,4.057h0A.806.806,0,0,0,0,4.292H10.659v9.658l.269.269,3.789-3.788a.807.807,0,0,0,.235-.574V4.626a.806.806,0,0,0-.236-.569L10.895.236A.807.807,0,0,0,10.325,0Z" transform="translate(17.243 1.074)" fill="#9aa5b1"/>
    <path id="Path_1388" data-name="Path 1388" d="M10.856.236A.807.807,0,0,0,10.287,0H.269a.269.269,0,0,0-.19.458l3.6,3.6a.806.806,0,0,0,.569.236H14.369a.538.538,0,0,1,.538.538v-.2a.806.806,0,0,0-.236-.569L10.857.236Z" transform="translate(0.11 1.074)" fill="#cbd2d9"/>
    <path id="Path_1389" data-name="Path 1389" d="M4.057.236A.806.806,0,0,1,4.627,0h5.768a.806.806,0,0,1,.569.236l3.822,3.821a.806.806,0,0,1,.236.57v.2a.538.538,0,0,0-.538-.538H.538A.538.538,0,0,0,0,4.83v-.2a.806.806,0,0,1,.236-.569Z" transform="translate(17.17 1.074)" fill="#cbd2d9"/>
    <path id="Path_1390" data-name="Path 1390" d="M7.859,0a.538.538,0,0,1-.538.538H.134A.134.134,0,0,0,.04.765l3.8,3.8L7.623.772A.807.807,0,0,0,7.859.2Z" transform="translate(24.336 10.731)" fill="#cbd2d9"/>
  </g>
  <path id="Path_1392" data-name="Path 1392" d="M7.827,6.99c0-1.814-1.045-2.489-3.576-3.13-1.523-.374-1.93-.676-1.93-1.209s.479-.889,1.47-.889a7.037,7.037,0,0,1,3.136.853L7.242.676A8.638,8.638,0,0,0,3.807,0C1.523,0,.179,1.174.179,2.809c0,1.761.986,2.437,3.38,3.023,1.664.392,2.125.658,2.125,1.369,0,.64-.637,1.031-1.753,1.031A7.088,7.088,0,0,1,.3,7.113L0,9.069a9,9,0,0,0,3.843.925C6.428,9.993,7.827,8.871,7.827,6.99Z" transform="translate(124.599 8.451)" fill="#9aa5b1"/>
  <path id="Path_1393" data-name="Path 1393" d="M8.449,9.658V0H6.1V6.56A3.649,3.649,0,0,1,3.688,7.8c-.956,0-1.344-.584-1.344-1.434V0H0V6.984A2.608,2.608,0,0,0,2.885,9.857,5.018,5.018,0,0,0,6.236,8.321l.335,1.344Z" transform="translate(114.961 8.585)" fill="#9aa5b1"/>
  <path id="Path_1394" data-name="Path 1394" d="M2.321,9.658V0H0V9.658Z" transform="translate(111.252 8.585)" fill="#9aa5b1"/>
  <path id="Path_1395" data-name="Path 1395" d="M1.411,0A1.337,1.337,0,0,1,2.8,1.344,1.337,1.337,0,0,1,1.411,2.688,1.357,1.357,0,0,1,0,1.344,1.357,1.357,0,0,1,1.411,0Z" transform="translate(111.007 4.361)" fill="#9aa5b1"/>
  <path id="Path_1396" data-name="Path 1396" d="M6.764,11.131a3.108,3.108,0,0,1-2.391,1.363c-1.165,0-2.036-.9-2.036-2.8,0-2.125,1.01-3.154,2.391-3.154a4.44,4.44,0,0,1,2.036.425Zm2.319,3.226V0L6.764.4V5.057a7.208,7.208,0,0,0-2.355-.372C2.072,4.685,0,6.279,0,9.837c0,3.226,1.7,4.71,3.807,4.71a4.049,4.049,0,0,0,3.1-1.523l.2,1.328Z" transform="translate(100.781 3.89)" fill="#9aa5b1"/>
  <path id="Path_1397" data-name="Path 1397" d="M6.093,7.118A3.74,3.74,0,0,1,3.612,8.2C2.8,8.2,2.3,7.756,2.3,7.065c0-.92.726-1.753,3.79-2.09ZM8.4,9.756V3.187C8.393.92,7.153,0,4.6,0A10.151,10.151,0,0,0,.673.779L.956,2.62A8.871,8.871,0,0,1,4.32,1.859c1.116,0,1.771.39,1.771,1.434v.3C1.983,3.984,0,4.975,0,7.3A2.58,2.58,0,0,0,2.867,9.947,4.675,4.675,0,0,0,6.232,8.513l.212,1.239Z" transform="translate(91.41 8.487)" fill="#9aa5b1"/>
  <path id="Path_1398" data-name="Path 1398" d="M9.739,12.546l-3.7-5.068A3.591,3.591,0,0,0,8.816,3.893C8.816,1.414,7.024,0,4.067,0H0V12.878H2.408V7.915H3.573L7.185,13ZM6.41,4.033c0,1.344-1.009,2.079-2.656,2.079H2.391v-4.1H3.9c1.646,0,2.514.72,2.514,2.013Z" transform="translate(81.29 5.366)" fill="#9aa5b1"/>
  <path id="Path_1399" data-name="Path 1399" d="M6.3,13.012l-.283-1.93a3.943,3.943,0,0,1-.832.071c-.956,0-1.328-.425-1.328-1.2V5.231H6.305L5.9,3.35H3.853V0L1.572.4V3.353H0V5.235H1.572v5.108c0,2.161,1.275,2.833,3.187,2.833a6.381,6.381,0,0,0,1.54-.165Z" transform="translate(73.778 5.231)" fill="#9aa5b1"/>
  <path id="Path_1400" data-name="Path 1400" d="M7.827,6.99c0-1.814-1.045-2.489-3.576-3.13-1.523-.374-1.93-.676-1.93-1.209s.479-.889,1.47-.889a7.037,7.037,0,0,1,3.136.853L7.242.676A8.638,8.638,0,0,0,3.807,0C1.523,0,.179,1.174.179,2.809c0,1.761.986,2.437,3.38,3.023,1.664.392,2.125.658,2.125,1.369,0,.64-.637,1.031-1.753,1.031A6.973,6.973,0,0,1,.335,7.11L0,9.069a9.034,9.034,0,0,0,3.853.925C6.435,9.993,7.827,8.871,7.827,6.99Z" transform="translate(65.461 8.451)" fill="#9aa5b1"/>
  <path id="Path_1401" data-name="Path 1401" d="M8.449,9.658V0H6.1V6.56A3.649,3.649,0,0,1,3.688,7.8c-.956,0-1.344-.584-1.344-1.434V0H0V6.984A2.608,2.608,0,0,0,2.885,9.857,5.018,5.018,0,0,0,6.236,8.321l.335,1.344Z" transform="translate(55.939 8.585)" fill="#9aa5b1"/>
  <path id="Path_1402" data-name="Path 1402" d="M5.768,2.281,5.231,0A4.248,4.248,0,0,0,2.194,2.143L1.744.134H0V9.793H2.281v-5.5A4.509,4.509,0,0,1,5.768,2.281Z" transform="translate(49.096 8.451)" fill="#9aa5b1"/>
  <path id="Path_1403" data-name="Path 1403" d="M11.939,2.151,11.4,0H0V2.151H4.292V12.878H6.707V2.151Z" transform="translate(38.633 5.366)" fill="#9aa5b1"/>
  <path id="Path_823" data-name="Path 823" d="M845.23,103.3l1.728,3.519,3.839.512-2.815,2.751.7,3.839-3.454-1.792-3.519,1.792.7-3.839-2.816-2.749,3.9-.512Z" transform="translate(-808.258 -58.232)" fill="#1d3dbf"/>
  <path id="Path_824" data-name="Path 824" d="M867.93,103.3l1.727,3.519,3.9.512-2.815,2.751.64,3.839-3.454-1.792-3.455,1.792.64-3.839-2.816-2.749,3.9-.512Z" transform="translate(-816.435 -58.232)" fill="#1d3dbf"/>
  <path id="Path_825" data-name="Path 825" d="M890.73,103.3l1.728,3.519,3.838.512-2.815,2.751.7,3.839-3.454-1.792-3.519,1.792.7-3.839-2.815-2.749,3.9-.512Z" transform="translate(-824.649 -58.232)" fill="#1d3dbf"/>
  <path id="Path_826" data-name="Path 826" d="M913.43,103.3l1.728,3.519,3.9.512-2.815,2.751.64,3.839-3.454-1.792-3.455,1.792.64-3.839-2.816-2.749,3.9-.512Z" transform="translate(-832.827 -58.232)" fill="#1d3dbf"/>
  <path id="Path_827" data-name="Path 827" d="M941.76,107.294l-3.9-.576L936.13,103.2h0l-.7,1.472-1.023,2.048-3.9.576h0l1.983,1.919.832.768-.128.64-.576,3.2h0l3.454-1.792,3.454,1.792-.64-3.839Zm-5.377,4.286-.256-.128v-7.037l1.28,2.559.128.256.256.064,2.815.384-2.048,1.983-.192.192.064.256.448,2.815Z" transform="translate(-841.005 -58.196)" fill="#1d3dbf"/>
</svg>
