<svg xmlns="http://www.w3.org/2000/svg" width="63.499" height="56.46" viewBox="0 0 63.499 56.46">
  <g id="xero-ratings" transform="translate(0 0.5)">
    <path id="Path_148" data-name="Path 148" d="M-5021.819,4227.364a15.263,15.263,0,0,1-3.06-.314,15,15,0,0,1-2.851-.884,15.249,15.249,0,0,1-2.578-1.4,15.364,15.364,0,0,1-2.247-1.853,15.42,15.42,0,0,1-1.854-2.247,15.226,15.226,0,0,1-1.4-2.58,15.055,15.055,0,0,1-.885-2.849,15.3,15.3,0,0,1-.308-3.06,15.264,15.264,0,0,1,.307-3.06,15.008,15.008,0,0,1,.885-2.85,15.191,15.191,0,0,1,1.4-2.578,15.36,15.36,0,0,1,1.854-2.247,15.367,15.367,0,0,1,2.247-1.853,15.11,15.11,0,0,1,2.579-1.4,15.081,15.081,0,0,1,2.85-.884,15.3,15.3,0,0,1,3.06-.308,15.252,15.252,0,0,1,3.059.308,15.1,15.1,0,0,1,2.849.885,15.111,15.111,0,0,1,2.579,1.4,15.252,15.252,0,0,1,2.247,1.854,15.275,15.275,0,0,1,1.854,2.247,15.208,15.208,0,0,1,1.4,2.579,15.115,15.115,0,0,1,.885,2.85,15.289,15.289,0,0,1,.309,3.06,15.3,15.3,0,0,1-.31,3.063,15.073,15.073,0,0,1-.883,2.845,15.129,15.129,0,0,1-1.4,2.58,15.336,15.336,0,0,1-1.854,2.247,15.268,15.268,0,0,1-2.246,1.853,15.223,15.223,0,0,1-2.579,1.4,14.99,14.99,0,0,1-2.85.884A15.289,15.289,0,0,1-5021.819,4227.364Zm-1.709-18.582a3.456,3.456,0,0,0-1.027.157,3.34,3.34,0,0,0-.941.467,3.4,3.4,0,0,0-1.057,1.229,3.468,3.468,0,0,0-.376,1.562,3.38,3.38,0,0,0,.1.822,3.424,3.424,0,0,0,2.883,2.541,3.261,3.261,0,0,0,.408.026,3.216,3.216,0,0,0,.813-.1,3.343,3.343,0,0,0,1.017-.436,3.645,3.645,0,0,0,.869-.823.055.055,0,0,1,.011-.013h0a.545.545,0,0,0,.117-.4.452.452,0,0,0-.17-.314.5.5,0,0,0-.3-.105.49.49,0,0,0-.386.211c-.048.067-.1.138-.162.209a2.65,2.65,0,0,1-.669.542,2.433,2.433,0,0,1-1.141.287,2.411,2.411,0,0,1-1.57-.568,2.665,2.665,0,0,1-.754-1.062,2.63,2.63,0,0,1-.1-.392l-.006-.071h4.838a.978.978,0,0,0,.758-.329.838.838,0,0,0,.162-.689h0a3.623,3.623,0,0,0-.531-1.28,3.3,3.3,0,0,0-.974-.942,3.369,3.369,0,0,0-1.818-.521Zm10.138-.008a3.4,3.4,0,0,0-3.4,3.4,3.4,3.4,0,0,0,3.4,3.4,3.4,3.4,0,0,0,3.4-3.4,3.4,3.4,0,0,0-3.4-3.4Zm-16.875,4.06h0l2.581,2.582a.455.455,0,0,0,.335.146.464.464,0,0,0,.463-.463.457.457,0,0,0-.135-.327l-2.582-2.594,2.583-2.6a.46.46,0,0,0,.134-.327.465.465,0,0,0-.464-.463.46.46,0,0,0-.33.139l-2.583,2.586-2.595-2.591a.457.457,0,0,0-.327-.133.466.466,0,0,0-.464.464.46.46,0,0,0,.139.331l2.586,2.59-2.583,2.592a.461.461,0,0,0-.14.333.463.463,0,0,0,.463.463.45.45,0,0,0,.326-.134l2.592-2.593Zm11.454-3.965a.461.461,0,0,0-.458.461v5.732a.461.461,0,0,0,.462.461.464.464,0,0,0,.464-.462v-3.525c0-1.163.1-1.649,1.112-1.781.059-.006.118-.009.178-.009h.017a.506.506,0,0,0,.339-.135.441.441,0,0,0,.13-.321.465.465,0,0,0-.465-.462h-.139a1.921,1.921,0,0,0-1.187.4.469.469,0,0,0-.451-.359Zm5.422,5.75a2.443,2.443,0,0,1-2.437-2.442,2.444,2.444,0,0,1,2.437-2.443,2.444,2.444,0,0,1,2.439,2.443,2.445,2.445,0,0,1-2.438,2.443Zm-.837-2.442a.843.843,0,0,0,.837.842.842.842,0,0,0,.837-.842.844.844,0,0,0-.837-.845.844.844,0,0,0-.838.845Zm-6.923-.563h-4.77v-.022a.106.106,0,0,1,0-.012h0a2.473,2.473,0,0,1,.86-1.327,2.474,2.474,0,0,1,.7-.388,2.441,2.441,0,0,1,.817-.139,2.436,2.436,0,0,1,.826.143,2.468,2.468,0,0,1,.708.4,2.466,2.466,0,0,1,.855,1.352Z" transform="translate(5053.421 -4196.996)" fill="#9aa5b1" stroke="rgba(0,0,0,0)" stroke-width="1"/>
    <g id="Group_72" data-name="Group 72" transform="translate(0 46.141)">
      <path id="Path_149" data-name="Path 149" d="M452.616,264.1l1.646,3.234,3.527.47-2.587,2.529.647,3.586-3.234-1.706-3.174,1.706.647-3.586L447.5,267.8l3.527-.47Z" transform="translate(-447.5 -264.1)" fill="#1d3dbf"/>
      <path id="Path_150" data-name="Path 150" d="M475.374,264.1l1.587,3.234,3.586.47-2.587,2.529.588,3.586-3.175-1.706-3.174,1.706.588-3.586L470.2,267.8l3.586-.47Z" transform="translate(-456.854 -264.1)" fill="#1d3dbf"/>
      <path id="Path_151" data-name="Path 151" d="M498.116,264.1l1.646,3.234,3.527.47-2.587,2.529.647,3.586-3.234-1.706-3.175,1.706.647-3.586L493,267.8l3.527-.47Z" transform="translate(-466.248 -264.1)" fill="#1d3dbf"/>
      <path id="Path_152" data-name="Path 152" d="M520.874,264.1l1.587,3.234,3.587.47-2.587,2.529.589,3.586-3.174-1.706-3.175,1.706.587-3.586L515.7,267.8l3.587-.47Z" transform="translate(-475.601 -264.1)" fill="#1d3dbf"/>
      <path id="Path_153" data-name="Path 153" d="M543.174,264.1l1.587,3.234,3.527.47-2.529,2.529.588,3.586-3.174-1.706L540,273.919l.589-3.586L538,267.8l3.586-.47Z" transform="translate(-484.79 -264.1)" fill="#1d3dbf"/>
    </g>
  </g>
</svg>
